<svg width="29" height="29" viewBox="0 0 29 29" fill="none" xmlns="http://www.w3.org/2000/svg">
  <path
    d="M19.5628 2.41663H9.43692C5.03859 2.41663 2.4165 5.03871 2.4165 9.43704V19.5508C2.4165 23.9612 5.03859 26.5833 9.43692 26.5833H19.5507C23.949 26.5833 26.5711 23.9612 26.5711 19.5629V9.43704C26.5832 5.03871 23.9611 2.41663 19.5628 2.41663ZM14.4998 19.1883C11.914 19.1883 9.8115 17.0858 9.8115 14.5C9.8115 11.9141 11.914 9.81163 14.4998 9.81163C17.0857 9.81163 19.1882 11.9141 19.1882 14.5C19.1882 17.0858 17.0857 19.1883 14.4998 19.1883ZM21.6532 8.31329C21.5928 8.45829 21.5082 8.59121 21.3994 8.71204C21.2786 8.82079 21.1457 8.90538 21.0007 8.96579C20.8557 9.02621 20.6986 9.06246 20.5415 9.06246C20.2153 9.06246 19.9132 8.94163 19.6836 8.71204C19.5748 8.59121 19.4903 8.45829 19.4298 8.31329C19.3694 8.16829 19.3332 8.01121 19.3332 7.85413C19.3332 7.69704 19.3694 7.53996 19.4298 7.39496C19.4903 7.23788 19.5748 7.11704 19.6836 6.99621C19.9615 6.71829 20.3844 6.58538 20.7711 6.66996C20.8557 6.68204 20.9282 6.70621 21.0007 6.74246C21.0732 6.76663 21.1457 6.80288 21.2182 6.85121C21.2786 6.88746 21.339 6.94788 21.3994 6.99621C21.5082 7.11704 21.5928 7.23788 21.6532 7.39496C21.7136 7.53996 21.7498 7.69704 21.7498 7.85413C21.7498 8.01121 21.7136 8.16829 21.6532 8.31329Z"
    fill="#292D32" />
</svg>