<svg width="422" height="30" viewBox="0 0 422 30" fill="none" xmlns="http://www.w3.org/2000/svg">
  <path
    d="M10.824 23.32C9.33067 23.32 7.95467 23.16 6.696 22.84C5.43733 22.52 4.28533 22.04 3.24 21.4C2.19467 20.76 1.24533 19.9493 0.392 18.968L2.632 16.12C3.912 17.5707 5.20267 18.616 6.504 19.256C7.82667 19.896 9.30933 20.216 10.952 20.216C11.976 20.216 12.9467 20.088 13.864 19.832C14.7813 19.5547 15.528 19.16 16.104 18.648C16.7013 18.136 17 17.496 17 16.728C17 16.2373 16.8507 15.8213 16.552 15.48C16.2533 15.1387 15.8587 14.8507 15.368 14.616C14.8773 14.3813 14.3227 14.1893 13.704 14.04C13.1067 13.8907 12.4987 13.7733 11.88 13.688C11.2827 13.5813 10.728 13.4853 10.216 13.4C8.85067 13.208 7.63467 12.9413 6.568 12.6C5.50133 12.2373 4.584 11.8 3.816 11.288C3.06933 10.7547 2.49333 10.1147 2.088 9.368C1.704 8.62133 1.512 7.768 1.512 6.808C1.512 5.80533 1.74667 4.89867 2.216 4.088C2.68533 3.27733 3.34667 2.59467 4.2 2.04C5.05333 1.464 6.04533 1.02667 7.176 0.727999C8.30667 0.429332 9.53333 0.279999 10.856 0.279999C12.2427 0.279999 13.512 0.429332 14.664 0.727999C15.8373 1.02667 16.872 1.47467 17.768 2.072C18.6853 2.648 19.4427 3.36267 20.04 4.216L17.704 6.712C17.1493 5.98667 16.5093 5.37867 15.784 4.888C15.08 4.39733 14.3013 4.024 13.448 3.768C12.5947 3.512 11.6987 3.384 10.76 3.384C9.69333 3.384 8.744 3.512 7.912 3.768C7.08 4.024 6.41867 4.38667 5.928 4.856C5.43733 5.304 5.192 5.848 5.192 6.488C5.192 7.04267 5.33067 7.52267 5.608 7.928C5.90667 8.312 6.32267 8.64267 6.856 8.92C7.38933 9.176 8.04 9.4 8.808 9.592C9.576 9.784 10.4507 9.944 11.432 10.072C12.6693 10.264 13.8427 10.4987 14.952 10.776C16.0827 11.0533 17.0747 11.416 17.928 11.864C18.7813 12.312 19.4533 12.888 19.944 13.592C20.4347 14.2747 20.68 15.128 20.68 16.152C20.68 17.6027 20.2747 18.872 19.464 19.96C18.6533 21.0267 17.512 21.8587 16.04 22.456C14.568 23.032 12.8293 23.32 10.824 23.32ZM40.317 23.32C38.461 23.32 36.7543 23.032 35.197 22.456C33.6397 21.8587 32.285 21.0373 31.133 19.992C29.981 18.9467 29.085 17.7307 28.445 16.344C27.8263 14.936 27.517 13.4213 27.517 11.8C27.517 10.1787 27.8263 8.67467 28.445 7.288C29.085 5.88 29.981 4.65333 31.133 3.608C32.285 2.56267 33.6397 1.752 35.197 1.176C36.7543 0.578665 38.461 0.279999 40.317 0.279999C42.173 0.279999 43.8797 0.578665 45.437 1.176C46.9943 1.752 48.349 2.56267 49.501 3.608C50.653 4.65333 51.549 5.88 52.189 7.288C52.829 8.67467 53.149 10.1787 53.149 11.8C53.149 13.4213 52.829 14.936 52.189 16.344C51.549 17.7307 50.653 18.9467 49.501 19.992C48.349 21.0373 46.9943 21.8587 45.437 22.456C43.8797 23.032 42.173 23.32 40.317 23.32ZM40.317 19.96C41.6823 19.96 42.9303 19.7573 44.061 19.352C45.1917 18.9253 46.173 18.3493 47.005 17.624C47.837 16.8773 48.477 16.0133 48.925 15.032C49.3943 14.0293 49.629 12.952 49.629 11.8C49.629 10.648 49.3943 9.58133 48.925 8.6C48.477 7.59733 47.837 6.73333 47.005 6.008C46.173 5.26133 45.1917 4.68533 44.061 4.28C42.9303 3.85333 41.6823 3.64 40.317 3.64C38.9517 3.64 37.7037 3.85333 36.573 4.28C35.4423 4.68533 34.461 5.25067 33.629 5.976C32.797 6.70133 32.157 7.56533 31.709 8.568C31.261 9.54933 31.037 10.6267 31.037 11.8C31.037 12.952 31.261 14.0293 31.709 15.032C32.157 16.0347 32.797 16.8987 33.629 17.624C34.461 18.3493 35.4423 18.9253 36.573 19.352C37.7037 19.7573 38.9517 19.96 40.317 19.96ZM79.412 23V0.599998H82.868V23H79.412ZM61.556 23V0.599998H65.012V23H61.556ZM63.06 13.592L63.092 10.264H80.948V13.592H63.06ZM103.297 23.192C101.185 23.192 99.3288 22.744 97.7288 21.848C96.1501 20.952 94.9128 19.7253 94.0168 18.168C93.1208 16.6107 92.6727 14.84 92.6727 12.856V0.567999H96.1288V12.696C96.1288 14.0613 96.4488 15.288 97.0888 16.376C97.7288 17.4427 98.5928 18.2853 99.6808 18.904C100.769 19.5227 101.974 19.832 103.297 19.832C104.705 19.832 105.963 19.5227 107.073 18.904C108.182 18.2853 109.057 17.4427 109.697 16.376C110.337 15.288 110.657 14.0613 110.657 12.696V0.567999H113.953V12.856C113.953 14.84 113.505 16.6107 112.609 18.168C111.713 19.7253 110.465 20.952 108.865 21.848C107.265 22.744 105.409 23.192 103.297 23.192ZM123.68 23V19.64H128.896V3.96H123.68V0.599998H137.6V3.96H132.352V19.64H137.6V23H123.68ZM147.393 29.272L145.953 27.608C146.892 27.0533 147.66 26.488 148.257 25.912C148.876 25.3573 149.185 24.856 149.185 24.408C149.185 24.0667 149.068 23.7787 148.833 23.544C148.598 23.3307 148.3 23.096 147.937 22.84C147.51 22.5413 147.126 22.2427 146.785 21.944C146.444 21.624 146.273 21.208 146.273 20.696C146.273 19.992 146.529 19.4587 147.041 19.096C147.553 18.7333 148.172 18.552 148.897 18.552C149.58 18.552 150.22 18.744 150.817 19.128C151.414 19.512 151.894 20.024 152.257 20.664C152.62 21.304 152.801 22.0293 152.801 22.84C152.801 23.48 152.652 24.12 152.353 24.76C152.054 25.4 151.638 26.008 151.105 26.584C150.593 27.16 150.017 27.672 149.377 28.12C148.737 28.5893 148.076 28.9733 147.393 29.272ZM178.023 17.08L177.959 13.176L193.159 0.599998H198.119L178.023 17.08ZM175.431 23V0.599998H178.887V23H175.431ZM193.319 23L183.847 11.064L186.087 8.472L197.831 23H193.319ZM206.618 23V19.64H211.834V3.96H206.618V0.599998H220.538V3.96H215.29V19.64H220.538V23H206.618ZM230.619 23V0.599998H234.01L243.675 13.432L242.331 13.4L251.995 0.599998H255.323V23H251.867V13.592C251.867 11.7787 251.909 10.0933 251.995 8.536C252.08 6.97867 252.251 5.41067 252.507 3.832L252.891 5.112L244.027 16.568H241.915L233.083 5.144L233.435 3.832C233.691 5.38933 233.861 6.94667 233.947 8.504C234.032 10.04 234.075 11.736 234.075 13.592V23H230.619ZM265.174 29.272L263.734 27.608C264.673 27.0533 265.441 26.488 266.038 25.912C266.657 25.3573 266.966 24.856 266.966 24.408C266.966 24.0667 266.849 23.7787 266.614 23.544C266.38 23.3307 266.081 23.096 265.718 22.84C265.292 22.5413 264.908 22.2427 264.566 21.944C264.225 21.624 264.054 21.208 264.054 20.696C264.054 19.992 264.31 19.4587 264.822 19.096C265.334 18.7333 265.953 18.552 266.678 18.552C267.361 18.552 268.001 18.744 268.598 19.128C269.196 19.512 269.676 20.024 270.038 20.664C270.401 21.304 270.582 22.0293 270.582 22.84C270.582 23.48 270.433 24.12 270.134 24.76C269.836 25.4 269.42 26.008 268.886 26.584C268.374 27.16 267.798 27.672 267.158 28.12C266.518 28.5893 265.857 28.9733 265.174 29.272ZM301.98 23.32C300.487 23.32 299.111 23.16 297.852 22.84C296.594 22.52 295.442 22.04 294.396 21.4C293.351 20.76 292.402 19.9493 291.548 18.968L293.788 16.12C295.068 17.5707 296.359 18.616 297.66 19.256C298.983 19.896 300.466 20.216 302.108 20.216C303.132 20.216 304.103 20.088 305.02 19.832C305.938 19.5547 306.684 19.16 307.26 18.648C307.858 18.136 308.156 17.496 308.156 16.728C308.156 16.2373 308.007 15.8213 307.708 15.48C307.41 15.1387 307.015 14.8507 306.524 14.616C306.034 14.3813 305.479 14.1893 304.86 14.04C304.263 13.8907 303.655 13.7733 303.036 13.688C302.439 13.5813 301.884 13.4853 301.372 13.4C300.007 13.208 298.791 12.9413 297.724 12.6C296.658 12.2373 295.74 11.8 294.972 11.288C294.226 10.7547 293.65 10.1147 293.244 9.368C292.86 8.62133 292.668 7.768 292.668 6.808C292.668 5.80533 292.903 4.89867 293.372 4.088C293.842 3.27733 294.503 2.59467 295.356 2.04C296.21 1.464 297.202 1.02667 298.332 0.727999C299.463 0.429332 300.69 0.279999 302.012 0.279999C303.399 0.279999 304.668 0.429332 305.82 0.727999C306.994 1.02667 308.028 1.47467 308.924 2.072C309.842 2.648 310.599 3.36267 311.196 4.216L308.86 6.712C308.306 5.98667 307.666 5.37867 306.94 4.888C306.236 4.39733 305.458 4.024 304.604 3.768C303.751 3.512 302.855 3.384 301.916 3.384C300.85 3.384 299.9 3.512 299.068 3.768C298.236 4.024 297.575 4.38667 297.084 4.856C296.594 5.304 296.348 5.848 296.348 6.488C296.348 7.04267 296.487 7.52267 296.764 7.928C297.063 8.312 297.479 8.64267 298.012 8.92C298.546 9.176 299.196 9.4 299.964 9.592C300.732 9.784 301.607 9.944 302.588 10.072C303.826 10.264 304.999 10.4987 306.108 10.776C307.239 11.0533 308.231 11.416 309.084 11.864C309.938 12.312 310.61 12.888 311.1 13.592C311.591 14.2747 311.836 15.128 311.836 16.152C311.836 17.6027 311.431 18.872 310.62 19.96C309.81 21.0267 308.668 21.8587 307.196 22.456C305.724 23.032 303.986 23.32 301.98 23.32ZM331.473 23.32C329.617 23.32 327.911 23.032 326.353 22.456C324.796 21.8587 323.441 21.0373 322.289 19.992C321.137 18.9467 320.241 17.7307 319.601 16.344C318.983 14.936 318.673 13.4213 318.673 11.8C318.673 10.1787 318.983 8.67467 319.601 7.288C320.241 5.88 321.137 4.65333 322.289 3.608C323.441 2.56267 324.796 1.752 326.353 1.176C327.911 0.578665 329.617 0.279999 331.473 0.279999C333.329 0.279999 335.036 0.578665 336.593 1.176C338.151 1.752 339.505 2.56267 340.657 3.608C341.809 4.65333 342.705 5.88 343.345 7.288C343.985 8.67467 344.305 10.1787 344.305 11.8C344.305 13.4213 343.985 14.936 343.345 16.344C342.705 17.7307 341.809 18.9467 340.657 19.992C339.505 21.0373 338.151 21.8587 336.593 22.456C335.036 23.032 333.329 23.32 331.473 23.32ZM331.473 19.96C332.839 19.96 334.087 19.7573 335.217 19.352C336.348 18.9253 337.329 18.3493 338.161 17.624C338.993 16.8773 339.633 16.0133 340.081 15.032C340.551 14.0293 340.785 12.952 340.785 11.8C340.785 10.648 340.551 9.58133 340.081 8.6C339.633 7.59733 338.993 6.73333 338.161 6.008C337.329 5.26133 336.348 4.68533 335.217 4.28C334.087 3.85333 332.839 3.64 331.473 3.64C330.108 3.64 328.86 3.85333 327.729 4.28C326.599 4.68533 325.617 5.25067 324.785 5.976C323.953 6.70133 323.313 7.56533 322.865 8.568C322.417 9.54933 322.193 10.6267 322.193 11.8C322.193 12.952 322.417 14.0293 322.865 15.032C323.313 16.0347 323.953 16.8987 324.785 17.624C325.617 18.3493 326.599 18.9253 327.729 19.352C328.86 19.7573 330.108 19.96 331.473 19.96ZM361.48 23.32C359.987 23.32 358.611 23.16 357.352 22.84C356.094 22.52 354.942 22.04 353.896 21.4C352.851 20.76 351.902 19.9493 351.048 18.968L353.288 16.12C354.568 17.5707 355.859 18.616 357.16 19.256C358.483 19.896 359.966 20.216 361.608 20.216C362.632 20.216 363.603 20.088 364.52 19.832C365.438 19.5547 366.184 19.16 366.76 18.648C367.358 18.136 367.656 17.496 367.656 16.728C367.656 16.2373 367.507 15.8213 367.208 15.48C366.91 15.1387 366.515 14.8507 366.024 14.616C365.534 14.3813 364.979 14.1893 364.36 14.04C363.763 13.8907 363.155 13.7733 362.536 13.688C361.939 13.5813 361.384 13.4853 360.872 13.4C359.507 13.208 358.291 12.9413 357.224 12.6C356.158 12.2373 355.24 11.8 354.472 11.288C353.726 10.7547 353.15 10.1147 352.744 9.368C352.36 8.62133 352.168 7.768 352.168 6.808C352.168 5.80533 352.403 4.89867 352.872 4.088C353.342 3.27733 354.003 2.59467 354.856 2.04C355.71 1.464 356.702 1.02667 357.832 0.727999C358.963 0.429332 360.19 0.279999 361.512 0.279999C362.899 0.279999 364.168 0.429332 365.32 0.727999C366.494 1.02667 367.528 1.47467 368.424 2.072C369.342 2.648 370.099 3.36267 370.696 4.216L368.36 6.712C367.806 5.98667 367.166 5.37867 366.44 4.888C365.736 4.39733 364.958 4.024 364.104 3.768C363.251 3.512 362.355 3.384 361.416 3.384C360.35 3.384 359.4 3.512 358.568 3.768C357.736 4.024 357.075 4.38667 356.584 4.856C356.094 5.304 355.848 5.848 355.848 6.488C355.848 7.04267 355.987 7.52267 356.264 7.928C356.563 8.312 356.979 8.64267 357.512 8.92C358.046 9.176 358.696 9.4 359.464 9.592C360.232 9.784 361.107 9.944 362.088 10.072C363.326 10.264 364.499 10.4987 365.608 10.776C366.739 11.0533 367.731 11.416 368.584 11.864C369.438 12.312 370.11 12.888 370.6 13.592C371.091 14.2747 371.336 15.128 371.336 16.152C371.336 17.6027 370.931 18.872 370.12 19.96C369.31 21.0267 368.168 21.8587 366.696 22.456C365.224 23.032 363.486 23.32 361.48 23.32ZM379.805 23V19.64H385.021V3.96H379.805V0.599998H393.725V3.96H388.477V19.64H393.725V23H379.805ZM403.806 23V0.599998H421.15V3.928H407.262V19.672H421.15V23H403.806ZM405.63 13.176V9.848H419.39V13.176H405.63Z"
    fill="#11FF00" />
</svg>
  